<svg width="18" height="18" viewBox="0 0 18 18" fill="none" xmlns="http://www.w3.org/2000/svg">
<g clip-path="url(#clip0)">
<path d="M12.9601 2.03319C13.8188 2.03506 14.6418 2.37148 15.249 2.96885C15.8562 3.56621 16.1982 4.37586 16.2001 5.22066V13.0122C16.1982 13.857 15.8562 14.6667 15.249 15.2641C14.6418 15.8614 13.8188 16.1978 12.9601 16.1997H5.04009C4.18262 16.196 3.36147 15.8587 2.75581 15.2616C2.15016 14.6644 1.80919 13.8558 1.80729 13.0122V5.22066C1.80919 4.37709 2.15016 3.5685 2.75581 2.97134C3.36147 2.37418 4.18262 2.03693 5.04009 2.03319H12.9601ZM12.9601 0.970703H5.04009C3.89436 0.970703 2.79555 1.41846 1.98539 2.21549C1.17523 3.01251 0.720093 4.0935 0.720093 5.22066L0.720093 13.0122C0.720093 14.1394 1.17523 15.2204 1.98539 16.0174C2.79555 16.8144 3.89436 17.2622 5.04009 17.2622H12.9601C14.1058 17.2622 15.2046 16.8144 16.0148 16.0174C16.8249 15.2204 17.2801 14.1394 17.2801 13.0122V5.22066C17.2801 4.0935 16.8249 3.01251 16.0148 2.21549C15.2046 1.41846 14.1058 0.970703 12.9601 0.970703V0.970703Z" fill="#192144"/>
<path d="M9.00703 5.98486C9.63787 5.98486 10.2545 6.16889 10.7791 6.51369C11.3036 6.85848 11.7124 7.34855 11.9538 7.92193C12.1953 8.4953 12.2584 9.12622 12.1353 9.73491C12.0123 10.3436 11.7085 10.9027 11.2624 11.3416C10.8163 11.7804 10.248 12.0793 9.62929 12.2003C9.01057 12.3214 8.36924 12.2593 7.78642 12.0218C7.2036 11.7843 6.70545 11.3821 6.35497 10.8661C6.00449 10.35 5.81743 9.74336 5.81743 9.12274C5.81648 8.71041 5.89833 8.30195 6.05829 7.92082C6.21824 7.53969 6.45315 7.19341 6.74952 6.90184C7.04589 6.61027 7.39789 6.37918 7.7853 6.22181C8.17271 6.06445 8.5879 5.98392 9.00703 5.98486V5.98486ZM9.00703 4.92237C8.16228 4.92097 7.33609 5.16612 6.63301 5.62681C5.92993 6.0875 5.38156 6.74302 5.0573 7.51042C4.73304 8.27781 4.64746 9.12259 4.81139 9.93784C4.97532 10.7531 5.38139 11.5022 5.97822 12.0903C6.57504 12.6785 7.3358 13.0792 8.16422 13.2419C8.99264 13.4045 9.85148 13.3218 10.6321 13.0041C11.4127 12.6863 12.0799 12.148 12.5494 11.4571C13.0188 10.7662 13.2694 9.9538 13.2694 9.12274C13.2704 8.57148 13.1608 8.02544 12.947 7.51586C12.7333 7.00629 12.4194 6.54319 12.0236 6.15306C11.6277 5.76293 11.1575 5.45342 10.6398 5.24224C10.1222 5.03107 9.56738 4.92237 9.00703 4.92237Z" fill="#192144"/>
<path d="M13.4282 5.73083C13.961 5.73083 14.393 5.30588 14.393 4.78168C14.393 4.25747 13.961 3.83252 13.4282 3.83252C12.8953 3.83252 12.4634 4.25747 12.4634 4.78168C12.4634 5.30588 12.8953 5.73083 13.4282 5.73083Z" fill="#192144"/>
</g>
<defs>
<clipPath id="clip0">
<rect width="18" height="17.7081" fill="white" transform="translate(0 0.261719)"/>
</clipPath>
</defs>
</svg>
