<svg width="62" height="62" viewBox="0 0 62 62" fill="none" xmlns="http://www.w3.org/2000/svg">
<path d="M59.8014 35.4465C60.254 31.5329 59.9313 27.5685 58.8518 23.7796C57.7723 19.9908 55.9571 16.4516 53.5098 13.3643C51.0625 10.2769 48.0311 7.70183 44.5886 5.78602C41.1461 3.87022 37.36 2.65122 33.4465 2.19863" stroke="#FF8D30" stroke-width="3" stroke-linecap="round"/>
<path d="M29.6162 31.432C29.9362 31.72 30.0962 32.072 30.0962 32.488C30.0962 32.904 29.9362 33.264 29.6162 33.568C29.2962 33.856 28.9042 34 28.4402 34H20.5442C20.0482 34 19.6402 33.848 19.3202 33.544C19.0002 33.24 18.8402 32.864 18.8402 32.416C18.8402 31.936 18.9042 31.56 19.0322 31.288C19.3362 30.632 19.7602 29.968 20.3042 29.296C20.8482 28.608 21.3042 28.088 21.6722 27.736C22.0562 27.368 22.6482 26.824 23.4482 26.104C23.5282 26.04 23.8002 25.808 24.2642 25.408C24.7282 24.992 25.0402 24.704 25.2002 24.544C25.3602 24.368 25.5922 24.104 25.8962 23.752C26.2002 23.4 26.4082 23.064 26.5202 22.744C26.6322 22.424 26.6882 22.096 26.6882 21.76C26.6882 21.12 26.4882 20.6 26.0882 20.2C25.7042 19.784 25.1522 19.576 24.4322 19.576C23.6962 19.576 23.0242 19.704 22.4162 19.96C22.3042 20.008 22.1362 20.096 21.9122 20.224C21.7042 20.336 21.5042 20.432 21.3122 20.512C21.1202 20.576 20.9202 20.608 20.7122 20.608C20.2802 20.608 19.8962 20.472 19.5602 20.2C19.2402 19.928 19.0802 19.576 19.0802 19.144C19.0802 18.36 19.6722 17.752 20.8562 17.32C22.0562 16.872 23.2562 16.648 24.4562 16.648C26.1522 16.648 27.4962 17.112 28.4882 18.04C29.4962 18.952 30.0002 20.112 30.0002 21.52C30.0002 23.232 29.3682 24.744 28.1042 26.056C27.7842 26.392 26.9922 27.128 25.7282 28.264C24.4642 29.4 23.5842 30.312 23.0882 31H28.4402C28.9042 31 29.2962 31.144 29.6162 31.432ZM42.9132 28.36C42.9132 29.928 42.4412 31.296 41.4972 32.464C40.5532 33.616 39.1692 34.192 37.3452 34.192C36.9612 34.192 36.5132 34.16 36.0012 34.096C35.4892 34.048 34.9052 33.952 34.2492 33.808C33.6092 33.648 33.0652 33.408 32.6172 33.088C32.1852 32.752 31.9692 32.352 31.9692 31.888C31.9692 31.488 32.1212 31.144 32.4252 30.856C32.7452 30.552 33.1292 30.4 33.5772 30.4C33.8332 30.4 34.2812 30.552 34.9212 30.856C35.5772 31.144 36.2012 31.288 36.7932 31.288C37.7852 31.288 38.4972 31.024 38.9292 30.496C39.3612 29.952 39.5772 29.272 39.5772 28.456C39.5772 27.608 39.3612 26.968 38.9292 26.536C38.5132 26.088 37.9612 25.864 37.2732 25.864C36.7932 25.864 36.3532 25.968 35.9532 26.176C35.3132 26.672 34.7372 26.92 34.2252 26.92C33.7452 26.92 33.3372 26.768 33.0012 26.464C32.6812 26.16 32.5292 25.768 32.5452 25.288L32.7852 18.664C32.8012 18.184 32.9852 17.8 33.3372 17.512C33.7052 17.208 34.1292 17.056 34.6092 17.056H40.3932C40.8892 17.056 41.3132 17.184 41.6652 17.44C42.0332 17.68 42.2172 18.056 42.2172 18.568C42.2172 19.064 42.0332 19.432 41.6652 19.672C41.3132 19.912 40.8892 20.032 40.3932 20.032H35.9052L35.7612 23.152C36.1932 23.024 36.7132 22.96 37.3212 22.96C38.9852 22.96 40.3292 23.448 41.3532 24.424C42.3932 25.384 42.9132 26.696 42.9132 28.36Z" fill="#1D2E5B"/>
<line opacity="0.1" x1="15" y1="38.5" x2="46" y2="38.5" stroke="black"/>
<path opacity="0.4" d="M19.0362 50.684V42.396C19.0362 42.2467 19.0876 42.1207 19.1902 42.018C19.3022 41.906 19.4329 41.85 19.5822 41.85C19.7409 41.85 19.8716 41.906 19.9742 42.018C20.0769 42.1207 20.1282 42.2467 20.1282 42.396V50.684C20.1282 50.992 20.1936 51.2113 20.3242 51.342C20.3896 51.426 20.4222 51.5147 20.4222 51.608C20.4222 51.748 20.3709 51.8693 20.2682 51.972C20.1749 52.0653 20.0582 52.112 19.9182 52.112C19.3302 52.112 19.0362 51.636 19.0362 50.684ZM24.4338 51.146C24.8351 51.146 25.3205 51.0153 25.8898 50.754C25.9458 50.726 26.0111 50.712 26.0858 50.712C26.2258 50.712 26.3425 50.7633 26.4358 50.866C26.5291 50.9593 26.5758 51.0713 26.5758 51.202C26.5758 51.51 26.3238 51.7387 25.8198 51.888C25.3158 52.0373 24.8118 52.112 24.3078 52.112C23.5331 52.112 22.9218 51.8973 22.4738 51.468C22.0351 51.0293 21.8158 50.4693 21.8158 49.788V47.17C21.8158 46.47 22.0398 45.9007 22.4878 45.462C22.9358 45.0233 23.5658 44.804 24.3778 44.804C25.1338 44.804 25.7078 45.0093 26.0998 45.42C26.5011 45.8213 26.7018 46.3767 26.7018 47.086C26.7018 48.4673 25.9131 49.158 24.3358 49.158C23.8785 49.158 23.4025 49.116 22.9078 49.032V49.858C22.9078 50.2593 23.0385 50.5767 23.2998 50.81C23.5611 51.034 23.9391 51.146 24.4338 51.146ZM25.6238 47.086C25.6238 46.2273 25.1991 45.798 24.3498 45.798C23.9018 45.798 23.5471 45.9147 23.2858 46.148C23.0338 46.372 22.9078 46.68 22.9078 47.072V48.136C23.3931 48.2013 23.8831 48.234 24.3778 48.234C24.8631 48.234 25.1898 48.1313 25.3578 47.926C25.5351 47.7113 25.6238 47.4313 25.6238 47.086ZM32.9258 45.532L31.0218 51.454C30.8724 51.8927 30.6344 52.112 30.3078 52.112C30.1211 52.112 29.9718 52.0653 29.8598 51.972C29.7571 51.8693 29.6684 51.7013 29.5938 51.468L27.6478 45.49C27.5918 45.3313 27.6244 45.1867 27.7458 45.056C27.8671 44.916 28.0118 44.846 28.1798 44.846C28.4224 44.846 28.5858 44.9673 28.6698 45.21L30.3078 50.488L31.9178 45.21C32.0018 44.9673 32.1651 44.846 32.4078 44.846C32.5758 44.846 32.7158 44.916 32.8278 45.056C32.9398 45.196 32.9724 45.3547 32.9258 45.532ZM36.4787 51.146C36.88 51.146 37.3654 51.0153 37.9347 50.754C37.9907 50.726 38.056 50.712 38.1307 50.712C38.2707 50.712 38.3874 50.7633 38.4807 50.866C38.574 50.9593 38.6207 51.0713 38.6207 51.202C38.6207 51.51 38.3687 51.7387 37.8647 51.888C37.3607 52.0373 36.8567 52.112 36.3527 52.112C35.578 52.112 34.9667 51.8973 34.5187 51.468C34.08 51.0293 33.8607 50.4693 33.8607 49.788V47.17C33.8607 46.47 34.0847 45.9007 34.5327 45.462C34.9807 45.0233 35.6107 44.804 36.4227 44.804C37.1787 44.804 37.7527 45.0093 38.1447 45.42C38.546 45.8213 38.7467 46.3767 38.7467 47.086C38.7467 48.4673 37.958 49.158 36.3807 49.158C35.9234 49.158 35.4474 49.116 34.9527 49.032V49.858C34.9527 50.2593 35.0834 50.5767 35.3447 50.81C35.606 51.034 35.984 51.146 36.4787 51.146ZM37.6687 47.086C37.6687 46.2273 37.244 45.798 36.3947 45.798C35.9467 45.798 35.592 45.9147 35.3307 46.148C35.0787 46.372 34.9527 46.68 34.9527 47.072V48.136C35.438 48.2013 35.928 48.234 36.4227 48.234C36.908 48.234 37.2347 48.1313 37.4027 47.926C37.58 47.7113 37.6687 47.4313 37.6687 47.086ZM40.1593 50.684V42.396C40.1593 42.2467 40.2106 42.1207 40.3133 42.018C40.4253 41.906 40.556 41.85 40.7053 41.85C40.864 41.85 40.9946 41.906 41.0973 42.018C41.2 42.1207 41.2513 42.2467 41.2513 42.396V50.684C41.2513 50.992 41.3166 51.2113 41.4473 51.342C41.5126 51.426 41.5453 51.5147 41.5453 51.608C41.5453 51.748 41.494 51.8693 41.3913 51.972C41.298 52.0653 41.1813 52.112 41.0413 52.112C40.4533 52.112 40.1593 51.636 40.1593 50.684Z" fill="black"/>
</svg>
