<svg width="64" height="64" viewBox="0 0 64 64" fill="none" xmlns="http://www.w3.org/2000/svg">
<path d="M4.93242 19.0638C2.18934 24.8033 1.34174 31.2663 2.51205 37.5191C3.68236 43.7719 6.80999 49.4909 11.4432 53.8499C16.0764 58.2089 21.9752 60.9823 28.2877 61.7694C34.6002 62.5566 40.9995 61.3168 46.5613 58.2291C52.1231 55.1415 56.5594 50.3658 59.2295 44.5919C61.8995 38.8179 62.6651 32.3447 61.4156 26.1073C60.166 19.8698 56.9661 14.191 52.278 9.89114C47.5899 5.59126 41.6563 2.89292 35.3344 2.18588" stroke="#FF8D30" stroke-width="3" stroke-linecap="round"/>
<path d="M32.5042 29.032C32.5042 30.536 31.9362 31.776 30.8002 32.752C29.6802 33.728 28.2402 34.216 26.4802 34.216C24.7362 34.216 23.2882 33.736 22.1362 32.776C21.0002 31.816 20.4322 30.6 20.4322 29.128C20.4322 27.448 21.2242 26.096 22.8082 25.072C21.6242 24.176 21.0322 23.008 21.0322 21.568C21.0322 20.144 21.5522 19.008 22.5922 18.16C23.6322 17.312 24.9202 16.888 26.4562 16.888C27.9922 16.888 29.2802 17.32 30.3202 18.184C31.3602 19.032 31.8802 20.128 31.8802 21.472C31.8802 22.848 31.2882 23.992 30.1042 24.904C31.7042 25.96 32.5042 27.336 32.5042 29.032ZM28.5922 21.544C28.5922 21.032 28.3842 20.608 27.9682 20.272C27.5682 19.936 27.0722 19.768 26.4802 19.768C25.8722 19.768 25.3602 19.936 24.9442 20.272C24.5442 20.608 24.3442 21.032 24.3442 21.544C24.3442 22.072 24.5522 22.52 24.9682 22.888C25.3842 23.24 25.9042 23.48 26.5282 23.608C27.1362 23.464 27.6322 23.208 28.0162 22.84C28.4002 22.472 28.5922 22.04 28.5922 21.544ZM29.1682 29.032C29.1682 28.392 28.9042 27.864 28.3762 27.448C27.8642 27.016 27.2082 26.712 26.4082 26.536C25.6242 26.696 24.9842 27 24.4882 27.448C24.0082 27.88 23.7682 28.408 23.7682 29.032C23.7682 29.672 24.0242 30.208 24.5362 30.64C25.0642 31.072 25.7122 31.288 26.4802 31.288C27.2482 31.288 27.8882 31.072 28.4002 30.64C28.9122 30.192 29.1682 29.656 29.1682 29.032ZM41.6492 22.192C41.6492 20.448 40.9132 19.576 39.4412 19.576C37.9692 19.576 37.2332 20.448 37.2332 22.192V28.96C37.2332 29.664 37.4252 30.224 37.8092 30.64C38.1932 31.056 38.7372 31.264 39.4412 31.264C40.1452 31.264 40.6892 31.056 41.0732 30.64C41.4572 30.224 41.6492 29.664 41.6492 28.96V22.192ZM35.2892 18.256C36.2172 17.184 37.6012 16.648 39.4412 16.648C41.2812 16.648 42.6652 17.184 43.5932 18.256C44.5212 19.312 44.9852 20.68 44.9852 22.36V28.96C44.9852 30.48 44.4892 31.736 43.4972 32.728C42.5212 33.72 41.1692 34.216 39.4412 34.216C37.7132 34.216 36.3532 33.72 35.3612 32.728C34.3852 31.736 33.8972 30.48 33.8972 28.96V22.36C33.8972 20.68 34.3612 19.312 35.2892 18.256Z" fill="#1D2E5B"/>
<line opacity="0.1" x1="17" y1="38.5" x2="48" y2="38.5" stroke="black"/>
<path opacity="0.4" d="M21.0362 50.684V42.396C21.0362 42.2467 21.0876 42.1207 21.1902 42.018C21.3022 41.906 21.4329 41.85 21.5822 41.85C21.7409 41.85 21.8716 41.906 21.9742 42.018C22.0769 42.1207 22.1282 42.2467 22.1282 42.396V50.684C22.1282 50.992 22.1936 51.2113 22.3242 51.342C22.3896 51.426 22.4222 51.5147 22.4222 51.608C22.4222 51.748 22.3709 51.8693 22.2682 51.972C22.1749 52.0653 22.0582 52.112 21.9182 52.112C21.3302 52.112 21.0362 51.636 21.0362 50.684ZM26.4338 51.146C26.8351 51.146 27.3205 51.0153 27.8898 50.754C27.9458 50.726 28.0111 50.712 28.0858 50.712C28.2258 50.712 28.3425 50.7633 28.4358 50.866C28.5291 50.9593 28.5758 51.0713 28.5758 51.202C28.5758 51.51 28.3238 51.7387 27.8198 51.888C27.3158 52.0373 26.8118 52.112 26.3078 52.112C25.5331 52.112 24.9218 51.8973 24.4738 51.468C24.0351 51.0293 23.8158 50.4693 23.8158 49.788V47.17C23.8158 46.47 24.0398 45.9007 24.4878 45.462C24.9358 45.0233 25.5658 44.804 26.3778 44.804C27.1338 44.804 27.7078 45.0093 28.0998 45.42C28.5011 45.8213 28.7018 46.3767 28.7018 47.086C28.7018 48.4673 27.9131 49.158 26.3358 49.158C25.8785 49.158 25.4025 49.116 24.9078 49.032V49.858C24.9078 50.2593 25.0385 50.5767 25.2998 50.81C25.5611 51.034 25.9391 51.146 26.4338 51.146ZM27.6238 47.086C27.6238 46.2273 27.1991 45.798 26.3498 45.798C25.9018 45.798 25.5471 45.9147 25.2858 46.148C25.0338 46.372 24.9078 46.68 24.9078 47.072V48.136C25.3931 48.2013 25.8831 48.234 26.3778 48.234C26.8631 48.234 27.1898 48.1313 27.3578 47.926C27.5351 47.7113 27.6238 47.4313 27.6238 47.086ZM34.9258 45.532L33.0218 51.454C32.8724 51.8927 32.6344 52.112 32.3078 52.112C32.1211 52.112 31.9718 52.0653 31.8598 51.972C31.7571 51.8693 31.6684 51.7013 31.5938 51.468L29.6478 45.49C29.5918 45.3313 29.6244 45.1867 29.7458 45.056C29.8671 44.916 30.0118 44.846 30.1798 44.846C30.4224 44.846 30.5858 44.9673 30.6698 45.21L32.3078 50.488L33.9178 45.21C34.0018 44.9673 34.1651 44.846 34.4078 44.846C34.5758 44.846 34.7158 44.916 34.8278 45.056C34.9398 45.196 34.9724 45.3547 34.9258 45.532ZM38.4787 51.146C38.88 51.146 39.3654 51.0153 39.9347 50.754C39.9907 50.726 40.056 50.712 40.1307 50.712C40.2707 50.712 40.3874 50.7633 40.4807 50.866C40.574 50.9593 40.6207 51.0713 40.6207 51.202C40.6207 51.51 40.3687 51.7387 39.8647 51.888C39.3607 52.0373 38.8567 52.112 38.3527 52.112C37.578 52.112 36.9667 51.8973 36.5187 51.468C36.08 51.0293 35.8607 50.4693 35.8607 49.788V47.17C35.8607 46.47 36.0847 45.9007 36.5327 45.462C36.9807 45.0233 37.6107 44.804 38.4227 44.804C39.1787 44.804 39.7527 45.0093 40.1447 45.42C40.546 45.8213 40.7467 46.3767 40.7467 47.086C40.7467 48.4673 39.958 49.158 38.3807 49.158C37.9234 49.158 37.4474 49.116 36.9527 49.032V49.858C36.9527 50.2593 37.0834 50.5767 37.3447 50.81C37.606 51.034 37.984 51.146 38.4787 51.146ZM39.6687 47.086C39.6687 46.2273 39.244 45.798 38.3947 45.798C37.9467 45.798 37.592 45.9147 37.3307 46.148C37.0787 46.372 36.9527 46.68 36.9527 47.072V48.136C37.438 48.2013 37.928 48.234 38.4227 48.234C38.908 48.234 39.2347 48.1313 39.4027 47.926C39.58 47.7113 39.6687 47.4313 39.6687 47.086ZM42.1593 50.684V42.396C42.1593 42.2467 42.2106 42.1207 42.3133 42.018C42.4253 41.906 42.556 41.85 42.7053 41.85C42.864 41.85 42.9946 41.906 43.0973 42.018C43.2 42.1207 43.2513 42.2467 43.2513 42.396V50.684C43.2513 50.992 43.3166 51.2113 43.4473 51.342C43.5126 51.426 43.5453 51.5147 43.5453 51.608C43.5453 51.748 43.494 51.8693 43.3913 51.972C43.298 52.0653 43.1813 52.112 43.0413 52.112C42.4533 52.112 42.1593 51.636 42.1593 50.684Z" fill="black"/>
</svg>
