<svg  fill="none"  viewBox="0 0 14 14" xmlns="http://www.w3.org/2000/svg" >
<g id="heart">
<path  d="M6.31919 4.1042L7.00396 2.73777C7.174 2.39941 7.46889 1.91288 7.88634 1.51952C8.29689 1.13228 8.78864 0.868772 9.38302 0.868772C10.6668 0.868772 11.6809 1.88156 11.6809 3.09905C11.6809 4.024 11.2566 4.67704 10.2501 5.67302C9.99196 5.92813 9.69783 6.20386 9.3723 6.50785C8.52362 7.30219 7.46813 8.29054 6.31919 9.6119C5.17025 8.29054 4.11476 7.30219 3.26608 6.50785C2.94055 6.20386 2.64566 5.92737 2.38829 5.67302C1.38183 4.67704 0.957486 4.024 0.957486 3.09905C0.957486 1.88156 1.97161 0.868772 3.25536 0.868772C3.84974 0.868772 4.34149 1.13228 4.75204 1.51952C5.16949 1.91288 5.46438 2.39941 5.63442 2.73777L6.31919 4.1042ZM6.61945 10.4376C6.58256 10.4811 6.53658 10.5161 6.48472 10.5402C6.43286 10.5642 6.37637 10.5766 6.31919 10.5766C6.26201 10.5766 6.20552 10.5642 6.15366 10.5402C6.1018 10.5161 6.05582 10.4811 6.01893 10.4376C4.79264 8.98483 3.68276 7.94607 2.76898 7.09139C1.18727 5.61039 0.191528 4.67933 0.191528 3.09905C0.191528 1.44544 1.56259 0.10498 3.25536 0.10498C4.48089 0.10498 5.338 0.906962 5.86268 1.63867C6.06183 1.91746 6.21349 2.18555 6.31919 2.39636C6.4517 2.13252 6.60431 1.87922 6.7757 1.63867C7.30038 0.906198 8.15749 0.10498 9.38302 0.10498C11.0758 0.10498 12.4469 1.44544 12.4469 3.09905C12.4469 4.67933 11.4511 5.61039 9.8694 7.09139C8.95562 7.94683 7.84574 8.98559 6.61945 10.4368V10.4376Z"/>
</g>
</svg>
