<svg width="12" height="12" viewBox="0 0 12 12" fill="none" xmlns="http://www.w3.org/2000/svg">
<path fill-rule="evenodd" clip-rule="evenodd" d="M6 4.66465L6.6705 3.25538C6.837 2.90641 7.12575 2.40462 7.5345 1.99894C7.9365 1.59955 8.418 1.32778 9 1.32778C10.257 1.32778 11.25 2.37233 11.25 3.62799C11.25 4.58194 10.8345 5.25546 9.849 6.28267C9.59625 6.54578 9.30825 6.83015 8.9895 7.14367C8.1585 7.96293 7.125 8.98226 6 10.3451C4.875 8.98226 3.8415 7.96293 3.0105 7.14367C2.69175 6.83015 2.403 6.54499 2.151 6.28267C1.1655 5.25546 0.75 4.58194 0.75 3.62799C0.75 2.37233 1.743 1.32778 3 1.32778C3.582 1.32778 4.0635 1.59955 4.4655 1.99894C4.87425 2.40462 5.163 2.90641 5.3295 3.25538L6 4.66465ZM6.294 11.1966C6.25788 11.2415 6.21286 11.2777 6.16209 11.3024C6.11131 11.3272 6.05599 11.34 6 11.34C5.94401 11.34 5.8887 11.3272 5.83792 11.3024C5.78714 11.2777 5.74212 11.2415 5.706 11.1966C4.50525 9.69832 3.4185 8.62699 2.52375 7.74551C0.975 6.21808 0 5.25782 0 3.62799C0 1.92253 1.3425 0.540039 3 0.540039C4.2 0.540039 5.03925 1.36717 5.553 2.12182C5.748 2.40935 5.8965 2.68585 6 2.90326C6.12975 2.63116 6.27918 2.36991 6.447 2.12182C6.96075 1.36638 7.8 0.540039 9 0.540039C10.6575 0.540039 12 1.92253 12 3.62799C12 5.25782 11.025 6.21808 9.47625 7.74551C8.5815 8.62778 7.49475 9.69911 6.294 11.1958V11.1966Z" fill="#192144"/>
</svg>
