<svg width="62" height="64" viewBox="0 0 62 64" fill="none" xmlns="http://www.w3.org/2000/svg">
<path d="M30 62C37.9565 62 45.5871 58.8393 51.2132 53.2132C56.8393 47.5871 60 39.9565 60 32C60 24.0435 56.8393 16.4129 51.2132 10.7868C45.5871 5.16071 37.9565 2 30 2" stroke="#FF8D30" stroke-width="3" stroke-linecap="round"/>
<path d="M29.9522 28.36C29.9522 29.928 29.4802 31.296 28.5362 32.464C27.5922 33.616 26.2082 34.192 24.3842 34.192C24.0002 34.192 23.5522 34.16 23.0402 34.096C22.5282 34.048 21.9442 33.952 21.2882 33.808C20.6482 33.648 20.1042 33.408 19.6562 33.088C19.2242 32.752 19.0082 32.352 19.0082 31.888C19.0082 31.488 19.1602 31.144 19.4642 30.856C19.7842 30.552 20.1682 30.4 20.6162 30.4C20.8722 30.4 21.3202 30.552 21.9602 30.856C22.6162 31.144 23.2402 31.288 23.8322 31.288C24.8242 31.288 25.5362 31.024 25.9682 30.496C26.4002 29.952 26.6162 29.272 26.6162 28.456C26.6162 27.608 26.4002 26.968 25.9682 26.536C25.5522 26.088 25.0002 25.864 24.3122 25.864C23.8322 25.864 23.3922 25.968 22.9922 26.176C22.3522 26.672 21.7762 26.92 21.2642 26.92C20.7842 26.92 20.3762 26.768 20.0402 26.464C19.7202 26.16 19.5682 25.768 19.5842 25.288L19.8242 18.664C19.8402 18.184 20.0242 17.8 20.3762 17.512C20.7442 17.208 21.1682 17.056 21.6482 17.056H27.4322C27.9282 17.056 28.3522 17.184 28.7042 17.44C29.0722 17.68 29.2562 18.056 29.2562 18.568C29.2562 19.064 29.0722 19.432 28.7042 19.672C28.3522 19.912 27.9282 20.032 27.4322 20.032H22.9442L22.8002 23.152C23.2322 23.024 23.7522 22.96 24.3602 22.96C26.0242 22.96 27.3682 23.448 28.3922 24.424C29.4322 25.384 29.9522 26.696 29.9522 28.36ZM39.6492 22.192C39.6492 20.448 38.9132 19.576 37.4412 19.576C35.9692 19.576 35.2332 20.448 35.2332 22.192V28.96C35.2332 29.664 35.4252 30.224 35.8092 30.64C36.1932 31.056 36.7372 31.264 37.4412 31.264C38.1452 31.264 38.6892 31.056 39.0732 30.64C39.4572 30.224 39.6492 29.664 39.6492 28.96V22.192ZM33.2892 18.256C34.2172 17.184 35.6012 16.648 37.4412 16.648C39.2812 16.648 40.6652 17.184 41.5932 18.256C42.5212 19.312 42.9852 20.68 42.9852 22.36V28.96C42.9852 30.48 42.4892 31.736 41.4972 32.728C40.5212 33.72 39.1692 34.216 37.4412 34.216C35.7132 34.216 34.3532 33.72 33.3612 32.728C32.3852 31.736 31.8972 30.48 31.8972 28.96V22.36C31.8972 20.68 32.3612 19.312 33.2892 18.256Z" fill="#1D2E5B"/>
<line opacity="0.1" x1="15" y1="38.5" x2="46" y2="38.5" stroke="black"/>
<path opacity="0.4" d="M19.0362 50.684V42.396C19.0362 42.2467 19.0876 42.1207 19.1902 42.018C19.3022 41.906 19.4329 41.85 19.5822 41.85C19.7409 41.85 19.8716 41.906 19.9742 42.018C20.0769 42.1207 20.1282 42.2467 20.1282 42.396V50.684C20.1282 50.992 20.1936 51.2113 20.3242 51.342C20.3896 51.426 20.4222 51.5147 20.4222 51.608C20.4222 51.748 20.3709 51.8693 20.2682 51.972C20.1749 52.0653 20.0582 52.112 19.9182 52.112C19.3302 52.112 19.0362 51.636 19.0362 50.684ZM24.4338 51.146C24.8351 51.146 25.3205 51.0153 25.8898 50.754C25.9458 50.726 26.0111 50.712 26.0858 50.712C26.2258 50.712 26.3425 50.7633 26.4358 50.866C26.5291 50.9593 26.5758 51.0713 26.5758 51.202C26.5758 51.51 26.3238 51.7387 25.8198 51.888C25.3158 52.0373 24.8118 52.112 24.3078 52.112C23.5331 52.112 22.9218 51.8973 22.4738 51.468C22.0351 51.0293 21.8158 50.4693 21.8158 49.788V47.17C21.8158 46.47 22.0398 45.9007 22.4878 45.462C22.9358 45.0233 23.5658 44.804 24.3778 44.804C25.1338 44.804 25.7078 45.0093 26.0998 45.42C26.5011 45.8213 26.7018 46.3767 26.7018 47.086C26.7018 48.4673 25.9131 49.158 24.3358 49.158C23.8785 49.158 23.4025 49.116 22.9078 49.032V49.858C22.9078 50.2593 23.0385 50.5767 23.2998 50.81C23.5611 51.034 23.9391 51.146 24.4338 51.146ZM25.6238 47.086C25.6238 46.2273 25.1991 45.798 24.3498 45.798C23.9018 45.798 23.5471 45.9147 23.2858 46.148C23.0338 46.372 22.9078 46.68 22.9078 47.072V48.136C23.3931 48.2013 23.8831 48.234 24.3778 48.234C24.8631 48.234 25.1898 48.1313 25.3578 47.926C25.5351 47.7113 25.6238 47.4313 25.6238 47.086ZM32.9258 45.532L31.0218 51.454C30.8724 51.8927 30.6344 52.112 30.3078 52.112C30.1211 52.112 29.9718 52.0653 29.8598 51.972C29.7571 51.8693 29.6684 51.7013 29.5938 51.468L27.6478 45.49C27.5918 45.3313 27.6244 45.1867 27.7458 45.056C27.8671 44.916 28.0118 44.846 28.1798 44.846C28.4224 44.846 28.5858 44.9673 28.6698 45.21L30.3078 50.488L31.9178 45.21C32.0018 44.9673 32.1651 44.846 32.4078 44.846C32.5758 44.846 32.7158 44.916 32.8278 45.056C32.9398 45.196 32.9724 45.3547 32.9258 45.532ZM36.4787 51.146C36.88 51.146 37.3654 51.0153 37.9347 50.754C37.9907 50.726 38.056 50.712 38.1307 50.712C38.2707 50.712 38.3874 50.7633 38.4807 50.866C38.574 50.9593 38.6207 51.0713 38.6207 51.202C38.6207 51.51 38.3687 51.7387 37.8647 51.888C37.3607 52.0373 36.8567 52.112 36.3527 52.112C35.578 52.112 34.9667 51.8973 34.5187 51.468C34.08 51.0293 33.8607 50.4693 33.8607 49.788V47.17C33.8607 46.47 34.0847 45.9007 34.5327 45.462C34.9807 45.0233 35.6107 44.804 36.4227 44.804C37.1787 44.804 37.7527 45.0093 38.1447 45.42C38.546 45.8213 38.7467 46.3767 38.7467 47.086C38.7467 48.4673 37.958 49.158 36.3807 49.158C35.9234 49.158 35.4474 49.116 34.9527 49.032V49.858C34.9527 50.2593 35.0834 50.5767 35.3447 50.81C35.606 51.034 35.984 51.146 36.4787 51.146ZM37.6687 47.086C37.6687 46.2273 37.244 45.798 36.3947 45.798C35.9467 45.798 35.592 45.9147 35.3307 46.148C35.0787 46.372 34.9527 46.68 34.9527 47.072V48.136C35.438 48.2013 35.928 48.234 36.4227 48.234C36.908 48.234 37.2347 48.1313 37.4027 47.926C37.58 47.7113 37.6687 47.4313 37.6687 47.086ZM40.1593 50.684V42.396C40.1593 42.2467 40.2106 42.1207 40.3133 42.018C40.4253 41.906 40.556 41.85 40.7053 41.85C40.864 41.85 40.9946 41.906 41.0973 42.018C41.2 42.1207 41.2513 42.2467 41.2513 42.396V50.684C41.2513 50.992 41.3166 51.2113 41.4473 51.342C41.5126 51.426 41.5453 51.5147 41.5453 51.608C41.5453 51.748 41.494 51.8693 41.3913 51.972C41.298 52.0653 41.1813 52.112 41.0413 52.112C40.4533 52.112 40.1593 51.636 40.1593 50.684Z" fill="black"/>
</svg>
