<svg width="64" height="64" viewBox="0 0 64 64" fill="none" xmlns="http://www.w3.org/2000/svg">
<path d="M27.436 2.3492C19.7903 3.52607 12.8947 7.61087 8.18897 13.7508C3.48324 19.8906 1.33115 27.611 2.18203 35.2998C3.03291 42.9886 6.82098 50.0516 12.7553 55.014C18.6897 59.9764 26.3116 62.4546 34.0296 61.9313C41.7477 61.4079 48.9652 57.9234 54.1753 52.2053C59.3854 46.4872 62.1854 38.9775 61.9905 31.2442C61.7956 23.5109 58.621 16.1518 53.1295 10.7034C47.6379 5.25497 40.254 2.13844 32.5194 2.0045" stroke="#FF8D30" stroke-width="3" stroke-linecap="round"/>
<path d="M25.9042 31.312C26.9442 31.328 27.6562 31.008 28.0402 30.352C28.4402 29.68 28.6882 28.68 28.7842 27.352C27.9842 27.832 27.1202 28.072 26.1922 28.072C24.6402 28.072 23.3442 27.6 22.3042 26.656C21.2642 25.696 20.7442 24.344 20.7442 22.6C20.7442 20.952 21.2402 19.584 22.2322 18.496C23.2242 17.408 24.6402 16.864 26.4802 16.864C27.5522 16.864 28.4722 17.064 29.2402 17.464C30.0082 17.864 30.6002 18.448 31.0162 19.216C31.4482 19.984 31.7522 20.848 31.9282 21.808C32.1202 22.768 32.2162 23.872 32.2162 25.12C32.2162 28.08 31.7122 30.336 30.7042 31.888C29.7122 33.44 28.2082 34.216 26.1922 34.216C25.8562 34.216 25.4882 34.192 25.0882 34.144C24.7042 34.112 24.2482 34.04 23.7202 33.928C23.2082 33.8 22.7682 33.6 22.4002 33.328C22.0482 33.056 21.8482 32.728 21.8002 32.344C21.7522 31.96 21.8642 31.616 22.1362 31.312C22.4242 31.008 22.8082 30.856 23.2882 30.856C23.5282 30.856 23.9202 30.928 24.4642 31.072C25.0242 31.216 25.5042 31.296 25.9042 31.312ZM28.8562 24.256V23.968C28.8562 21.264 28.0242 19.912 26.3602 19.912C25.5602 19.912 24.9762 20.168 24.6082 20.68C24.2562 21.176 24.0802 21.808 24.0802 22.576C24.0802 24.24 24.8642 25.072 26.4322 25.072C27.4562 25.072 28.2642 24.8 28.8562 24.256ZM38.8652 31.312C39.9052 31.328 40.6172 31.008 41.0012 30.352C41.4012 29.68 41.6492 28.68 41.7452 27.352C40.9452 27.832 40.0812 28.072 39.1532 28.072C37.6012 28.072 36.3052 27.6 35.2652 26.656C34.2252 25.696 33.7052 24.344 33.7052 22.6C33.7052 20.952 34.2012 19.584 35.1932 18.496C36.1852 17.408 37.6012 16.864 39.4412 16.864C40.5132 16.864 41.4332 17.064 42.2012 17.464C42.9692 17.864 43.5612 18.448 43.9772 19.216C44.4092 19.984 44.7132 20.848 44.8892 21.808C45.0812 22.768 45.1772 23.872 45.1772 25.12C45.1772 28.08 44.6732 30.336 43.6652 31.888C42.6732 33.44 41.1692 34.216 39.1532 34.216C38.8172 34.216 38.4492 34.192 38.0492 34.144C37.6652 34.112 37.2092 34.04 36.6812 33.928C36.1692 33.8 35.7292 33.6 35.3612 33.328C35.0092 33.056 34.8092 32.728 34.7612 32.344C34.7132 31.96 34.8252 31.616 35.0972 31.312C35.3852 31.008 35.7692 30.856 36.2492 30.856C36.4892 30.856 36.8812 30.928 37.4252 31.072C37.9852 31.216 38.4652 31.296 38.8652 31.312ZM41.8172 24.256V23.968C41.8172 21.264 40.9852 19.912 39.3212 19.912C38.5212 19.912 37.9372 20.168 37.5692 20.68C37.2172 21.176 37.0412 21.808 37.0412 22.576C37.0412 24.24 37.8252 25.072 39.3932 25.072C40.4172 25.072 41.2252 24.8 41.8172 24.256Z" fill="#1D2E5B"/>
<line opacity="0.1" x1="17" y1="38.5" x2="48" y2="38.5" stroke="black"/>
<path opacity="0.4" d="M21.0362 50.684V42.396C21.0362 42.2467 21.0876 42.1207 21.1902 42.018C21.3022 41.906 21.4329 41.85 21.5822 41.85C21.7409 41.85 21.8716 41.906 21.9742 42.018C22.0769 42.1207 22.1282 42.2467 22.1282 42.396V50.684C22.1282 50.992 22.1936 51.2113 22.3242 51.342C22.3896 51.426 22.4222 51.5147 22.4222 51.608C22.4222 51.748 22.3709 51.8693 22.2682 51.972C22.1749 52.0653 22.0582 52.112 21.9182 52.112C21.3302 52.112 21.0362 51.636 21.0362 50.684ZM26.4338 51.146C26.8351 51.146 27.3205 51.0153 27.8898 50.754C27.9458 50.726 28.0111 50.712 28.0858 50.712C28.2258 50.712 28.3425 50.7633 28.4358 50.866C28.5291 50.9593 28.5758 51.0713 28.5758 51.202C28.5758 51.51 28.3238 51.7387 27.8198 51.888C27.3158 52.0373 26.8118 52.112 26.3078 52.112C25.5331 52.112 24.9218 51.8973 24.4738 51.468C24.0351 51.0293 23.8158 50.4693 23.8158 49.788V47.17C23.8158 46.47 24.0398 45.9007 24.4878 45.462C24.9358 45.0233 25.5658 44.804 26.3778 44.804C27.1338 44.804 27.7078 45.0093 28.0998 45.42C28.5011 45.8213 28.7018 46.3767 28.7018 47.086C28.7018 48.4673 27.9131 49.158 26.3358 49.158C25.8785 49.158 25.4025 49.116 24.9078 49.032V49.858C24.9078 50.2593 25.0385 50.5767 25.2998 50.81C25.5611 51.034 25.9391 51.146 26.4338 51.146ZM27.6238 47.086C27.6238 46.2273 27.1991 45.798 26.3498 45.798C25.9018 45.798 25.5471 45.9147 25.2858 46.148C25.0338 46.372 24.9078 46.68 24.9078 47.072V48.136C25.3931 48.2013 25.8831 48.234 26.3778 48.234C26.8631 48.234 27.1898 48.1313 27.3578 47.926C27.5351 47.7113 27.6238 47.4313 27.6238 47.086ZM34.9258 45.532L33.0218 51.454C32.8724 51.8927 32.6344 52.112 32.3078 52.112C32.1211 52.112 31.9718 52.0653 31.8598 51.972C31.7571 51.8693 31.6684 51.7013 31.5938 51.468L29.6478 45.49C29.5918 45.3313 29.6244 45.1867 29.7458 45.056C29.8671 44.916 30.0118 44.846 30.1798 44.846C30.4224 44.846 30.5858 44.9673 30.6698 45.21L32.3078 50.488L33.9178 45.21C34.0018 44.9673 34.1651 44.846 34.4078 44.846C34.5758 44.846 34.7158 44.916 34.8278 45.056C34.9398 45.196 34.9724 45.3547 34.9258 45.532ZM38.4787 51.146C38.88 51.146 39.3654 51.0153 39.9347 50.754C39.9907 50.726 40.056 50.712 40.1307 50.712C40.2707 50.712 40.3874 50.7633 40.4807 50.866C40.574 50.9593 40.6207 51.0713 40.6207 51.202C40.6207 51.51 40.3687 51.7387 39.8647 51.888C39.3607 52.0373 38.8567 52.112 38.3527 52.112C37.578 52.112 36.9667 51.8973 36.5187 51.468C36.08 51.0293 35.8607 50.4693 35.8607 49.788V47.17C35.8607 46.47 36.0847 45.9007 36.5327 45.462C36.9807 45.0233 37.6107 44.804 38.4227 44.804C39.1787 44.804 39.7527 45.0093 40.1447 45.42C40.546 45.8213 40.7467 46.3767 40.7467 47.086C40.7467 48.4673 39.958 49.158 38.3807 49.158C37.9234 49.158 37.4474 49.116 36.9527 49.032V49.858C36.9527 50.2593 37.0834 50.5767 37.3447 50.81C37.606 51.034 37.984 51.146 38.4787 51.146ZM39.6687 47.086C39.6687 46.2273 39.244 45.798 38.3947 45.798C37.9467 45.798 37.592 45.9147 37.3307 46.148C37.0787 46.372 36.9527 46.68 36.9527 47.072V48.136C37.438 48.2013 37.928 48.234 38.4227 48.234C38.908 48.234 39.2347 48.1313 39.4027 47.926C39.58 47.7113 39.6687 47.4313 39.6687 47.086ZM42.1593 50.684V42.396C42.1593 42.2467 42.2106 42.1207 42.3133 42.018C42.4253 41.906 42.556 41.85 42.7053 41.85C42.864 41.85 42.9946 41.906 43.0973 42.018C43.2 42.1207 43.2513 42.2467 43.2513 42.396V50.684C43.2513 50.992 43.3166 51.2113 43.4473 51.342C43.5126 51.426 43.5453 51.5147 43.5453 51.608C43.5453 51.748 43.494 51.8693 43.3913 51.972C43.298 52.0653 43.1813 52.112 43.0413 52.112C42.4533 52.112 42.1593 51.636 42.1593 50.684Z" fill="black"/>
</svg>
