<svg  viewBox="0 0 100 100" fill="none" xmlns="http://www.w3.org/2000/svg">
<g id="form-mark-level">
<path fill-rule="evenodd" clip-rule="evenodd" d="M5.76698 26.6667C2.08488 33.6324 0 41.5727 0 50C0 77.6142 22.3858 100 50 100C77.6142 100 100 77.6142 100 50C100 22.3858 77.6142 0 50 0V3C75.9574 3 97 24.0426 97 50C97 75.9574 75.9574 97 50 97C24.0426 97 3 75.9574 3 50C3 41.508 5.25217 33.5419 9.19181 26.6667H5.76698Z" fill="#FF8D30"/>
<path d="M48.8086 40.134C48.8086 42.5153 47.9092 44.4787 46.1106 46.024C44.3372 47.5693 42.0572 48.342 39.2706 48.342C36.5092 48.342 34.2166 47.582 32.3926 46.062C30.5939 44.542 29.6946 42.6167 29.6946 40.286C29.6946 37.626 30.9486 35.4853 33.4566 33.864C31.5819 32.4453 30.6446 30.596 30.6446 28.316C30.6446 26.0613 31.4679 24.2627 33.1146 22.92C34.7612 21.5773 36.8006 20.906 39.2326 20.906C41.6646 20.906 43.7039 21.59 45.3506 22.958C46.9972 24.3007 47.8206 26.036 47.8206 28.164C47.8206 30.3427 46.8832 32.154 45.0086 33.598C47.5419 35.27 48.8086 37.4487 48.8086 40.134ZM42.6146 28.278C42.6146 27.4673 42.2852 26.796 41.6266 26.264C40.9932 25.732 40.2079 25.466 39.2706 25.466C38.3079 25.466 37.4972 25.732 36.8386 26.264C36.2052 26.796 35.8886 27.4673 35.8886 28.278C35.8886 29.114 36.2179 29.8233 36.8766 30.406C37.5352 30.9633 38.3586 31.3433 39.3466 31.546C40.3092 31.318 41.0946 30.9127 41.7026 30.33C42.3106 29.7473 42.6146 29.0633 42.6146 28.278ZM43.5266 40.134C43.5266 39.1207 43.1086 38.2847 42.2726 37.626C41.4619 36.942 40.4232 36.4607 39.1566 36.182C37.9152 36.4353 36.9019 36.9167 36.1166 37.626C35.3566 38.31 34.9766 39.146 34.9766 40.134C34.9766 41.1473 35.3819 41.996 36.1926 42.68C37.0286 43.364 38.0546 43.706 39.2706 43.706C40.4866 43.706 41.4999 43.364 42.3106 42.68C43.1212 41.9707 43.5266 41.122 43.5266 40.134ZM63.288 29.304C63.288 26.5427 62.1227 25.162 59.792 25.162C57.4614 25.162 56.296 26.5427 56.296 29.304V40.02C56.296 41.1347 56.6 42.0213 57.208 42.68C57.816 43.3387 58.6774 43.668 59.792 43.668C60.9067 43.668 61.768 43.3387 62.376 42.68C62.984 42.0213 63.288 41.1347 63.288 40.02V29.304ZM53.218 23.072C54.6874 21.3747 56.8787 20.526 59.792 20.526C62.7054 20.526 64.8967 21.3747 66.366 23.072C67.8354 24.744 68.57 26.91 68.57 29.57V40.02C68.57 42.4267 67.7847 44.4153 66.214 45.986C64.6687 47.5567 62.528 48.342 59.792 48.342C57.056 48.342 54.9027 47.5567 53.332 45.986C51.7867 44.4153 51.014 42.4267 51.014 40.02V29.57C51.014 26.91 51.7487 24.744 53.218 23.072Z" fill="#161C35"/>
<line opacity="0.3" x1="24.0001" y1="56.7979" x2="75.0639" y2="56.7979" stroke="#444444"/>
<path d="M35.769 75.9888V65.3328C35.769 65.1408 35.835 64.9788 35.967 64.8468C36.111 64.7028 36.279 64.6308 36.471 64.6308C36.675 64.6308 36.843 64.7028 36.975 64.8468C37.107 64.9788 37.173 65.1408 37.173 65.3328V75.9888C37.173 76.3848 37.257 76.6668 37.425 76.8348C37.509 76.9428 37.551 77.0568 37.551 77.1768C37.551 77.3568 37.485 77.5128 37.353 77.6448C37.233 77.7648 37.083 77.8248 36.903 77.8248C36.147 77.8248 35.769 77.2128 35.769 75.9888ZM42.7087 76.5828C43.2247 76.5828 43.8487 76.4148 44.5807 76.0788C44.6527 76.0428 44.7367 76.0248 44.8327 76.0248C45.0127 76.0248 45.1627 76.0908 45.2827 76.2228C45.4027 76.3428 45.4627 76.4868 45.4627 76.6548C45.4627 77.0508 45.1387 77.3448 44.4907 77.5368C43.8427 77.7288 43.1947 77.8248 42.5467 77.8248C41.5507 77.8248 40.7647 77.5488 40.1887 76.9968C39.6247 76.4328 39.3427 75.7128 39.3427 74.8368V71.4708C39.3427 70.5708 39.6307 69.8388 40.2067 69.2748C40.7827 68.7108 41.5927 68.4288 42.6367 68.4288C43.6087 68.4288 44.3467 68.6928 44.8507 69.2208C45.3667 69.7368 45.6247 70.4508 45.6247 71.3628C45.6247 73.1388 44.6107 74.0268 42.5827 74.0268C41.9947 74.0268 41.3827 73.9728 40.7467 73.8648V74.9268C40.7467 75.4428 40.9147 75.8508 41.2507 76.1508C41.5867 76.4388 42.0727 76.5828 42.7087 76.5828ZM44.2387 71.3628C44.2387 70.2588 43.6927 69.7068 42.6007 69.7068C42.0247 69.7068 41.5687 69.8568 41.2327 70.1568C40.9087 70.4448 40.7467 70.8408 40.7467 71.3448V72.7128C41.3707 72.7968 42.0007 72.8388 42.6367 72.8388C43.2607 72.8388 43.6807 72.7068 43.8967 72.4428C44.1247 72.1668 44.2387 71.8068 44.2387 71.3628ZM53.627 69.3648L51.179 76.9788C50.987 77.5428 50.681 77.8248 50.261 77.8248C50.021 77.8248 49.829 77.7648 49.685 77.6448C49.553 77.5128 49.439 77.2968 49.343 76.9968L46.841 69.3108C46.769 69.1068 46.811 68.9208 46.967 68.7528C47.123 68.5728 47.309 68.4828 47.525 68.4828C47.837 68.4828 48.047 68.6388 48.155 68.9508L50.261 75.7368L52.331 68.9508C52.439 68.6388 52.649 68.4828 52.961 68.4828C53.177 68.4828 53.357 68.5728 53.501 68.7528C53.645 68.9328 53.687 69.1368 53.627 69.3648ZM58.195 76.5828C58.711 76.5828 59.335 76.4148 60.067 76.0788C60.139 76.0428 60.223 76.0248 60.319 76.0248C60.499 76.0248 60.649 76.0908 60.769 76.2228C60.889 76.3428 60.949 76.4868 60.949 76.6548C60.949 77.0508 60.625 77.3448 59.977 77.5368C59.329 77.7288 58.681 77.8248 58.033 77.8248C57.037 77.8248 56.251 77.5488 55.675 76.9968C55.111 76.4328 54.829 75.7128 54.829 74.8368V71.4708C54.829 70.5708 55.117 69.8388 55.693 69.2748C56.269 68.7108 57.079 68.4288 58.123 68.4288C59.095 68.4288 59.833 68.6928 60.337 69.2208C60.853 69.7368 61.111 70.4508 61.111 71.3628C61.111 73.1388 60.097 74.0268 58.069 74.0268C57.481 74.0268 56.869 73.9728 56.233 73.8648V74.9268C56.233 75.4428 56.401 75.8508 56.737 76.1508C57.073 76.4388 57.559 76.5828 58.195 76.5828ZM59.725 71.3628C59.725 70.2588 59.179 69.7068 58.087 69.7068C57.511 69.7068 57.055 69.8568 56.719 70.1568C56.395 70.4448 56.233 70.8408 56.233 71.3448V72.7128C56.857 72.7968 57.487 72.8388 58.123 72.8388C58.747 72.8388 59.167 72.7068 59.383 72.4428C59.611 72.1668 59.725 71.8068 59.725 71.3628ZM62.9272 75.9888V65.3328C62.9272 65.1408 62.9932 64.9788 63.1252 64.8468C63.2692 64.7028 63.4372 64.6308 63.6292 64.6308C63.8332 64.6308 64.0012 64.7028 64.1332 64.8468C64.2652 64.9788 64.3312 65.1408 64.3312 65.3328V75.9888C64.3312 76.3848 64.4152 76.6668 64.5832 76.8348C64.6672 76.9428 64.7092 77.0568 64.7092 77.1768C64.7092 77.3568 64.6432 77.5128 64.5112 77.6448C64.3912 77.7648 64.2412 77.8248 64.0612 77.8248C63.3052 77.8248 62.9272 77.2128 62.9272 75.9888Z" fill="#444444"/>
</g>
</svg>
