<svg viewBox="0 0 14 14" fill="none" xmlns="http://www.w3.org/2000/svg">
<g id="plus">
<line y1="6.69995" x2="14" y2="6.69995" stroke="#CCCCCC" stroke-width="2"/>
<line x1="6.7" y1="14" x2="6.7" stroke="#CCCCCC" stroke-width="2"/>
</g>
<g id="minus">
<line  y1="7" x2="14" y2="7" stroke="#CCCCCC" stroke-width="2"/>
</g>
<g id="arrow-back-form" viewBox="0 0 15 21">
<path d="M11.8116 1.40061C11.713 1.28894 11.5958 1.20035 11.4668 1.1399C11.3378 1.07945 11.1994 1.04834 11.0598 1.04834C10.9201 1.04834 10.7818 1.07945 10.6528 1.1399C10.5238 1.20035 10.4066 1.28894 10.3079 1.40061L3.24844 9.37194C3.16968 9.46069 3.1072 9.5661 3.06457 9.68214C3.02194 9.79818 3 9.92258 3 10.0482C3 10.1738 3.02194 10.2982 3.06457 10.4143C3.1072 10.5303 3.16968 10.6357 3.24844 10.7245L10.3079 18.6958C10.7242 19.1658 11.3953 19.1658 11.8116 18.6958C12.2279 18.2258 11.883 17.7322 11.4668 17.2622L7.74854 13.0836L5.12914 10.0172L11.8207 2.30298C11.8207 2.30298 12.2279 1.86105 11.8116 1.40061Z" fill="black"/>
</g>
<g id="arrow-next-form" viewBox="0 0 15 21">
<path d="M3.06949 19.3693C3.16815 19.481 3.28536 19.5695 3.41439 19.63C3.54343 19.6904 3.68176 19.7216 3.82146 19.7216C3.96117 19.7216 4.0995 19.6904 4.22853 19.63C4.35757 19.5695 4.47477 19.481 4.57344 19.3693L11.6343 11.398C11.7131 11.3092 11.7756 11.2038 11.8182 11.0878C11.8609 10.9717 11.8828 10.8473 11.8828 10.7217C11.8828 10.5961 11.8609 10.4717 11.8182 10.3556C11.7756 10.2396 11.7131 10.1342 11.6343 10.0454L4.57344 2.07408C4.15709 1.60405 3.48584 1.60405 3.06949 2.07408C2.65314 2.54411 3.32374 3.3591 3.74009 3.82913L9.82453 10.7217L3.41439 17.972C3.00654 18.4324 2.65314 18.9089 3.06949 19.3693Z" fill="black"/>
</g>
<g id="icon-close" viewBox="0 0 9 9" fill="none">
<path d="M7.875 1.125L1.125 7.875" stroke="black" stroke-linecap="round" stroke-linejoin="round"/>
<path d="M1.125 1.125L7.875 7.875" stroke="black" stroke-linecap="round" stroke-linejoin="round"/>
</g>
<g id="icon-close-w" viewBox="0 0 9 9" fill="none">
<path d="M7.875 1.125L1.125 7.875" stroke="white" stroke-linecap="round" stroke-linejoin="round"/>
<path d="M1.125 1.125L7.875 7.875" stroke="white" stroke-linecap="round" stroke-linejoin="round"/>
</g>
<g viewBox="0 0 8 11" id="arrow-down-form">
<path d="M3.64645 10.3536C3.84171 10.5488 4.15829 10.5488 4.35355 10.3536L7.53553 7.17157C7.7308 6.97631 7.7308 6.65973 7.53553 6.46447C7.34027 6.2692 7.02369 6.2692 6.82843 6.46447L4 9.29289L1.17157 6.46447C0.976311 6.2692 0.659728 6.2692 0.464466 6.46447C0.269204 6.65973 0.269204 6.97631 0.464466 7.17157L3.64645 10.3536ZM3.5 0L3.5 10H4.5L4.5 0L3.5 0Z" fill="black"/>
</g>
<g id="arrow-dropdown-form" viewBox="0 0 12 16" fill="none">
<path d="M0.638485 5.09805C0.569006 5.17667 0.513881 5.27007 0.476269 5.37289C0.438657 5.47571 0.419296 5.58595 0.419296 5.69727C0.419296 5.8086 0.438657 5.91883 0.476269 6.02165C0.513881 6.12448 0.569006 6.21787 0.638485 6.29649L5.59843 11.9231C5.65365 11.9859 5.71924 12.0357 5.79144 12.0696C5.86364 12.1036 5.94105 12.1211 6.01922 12.1211C6.09739 12.1211 6.17479 12.1036 6.247 12.0696C6.3192 12.0357 6.38479 11.9859 6.44001 11.9231L11.4 6.29649C11.6924 5.96472 11.6924 5.42982 11.4 5.09805C11.1075 4.76628 10.8004 5.04112 10.5079 5.37289L7.90792 8.3364L5.99995 10.4241L1.19996 5.09079C1.19996 5.09079 0.92498 4.76628 0.638485 5.09805Z" fill="black"/>
</g>
<g id="icon-close-toggle" viewBox="0 0 9 9" fill="none">
<path d="M7.875 1.125L1.125 7.875"   stroke-linecap="round" stroke-linejoin="round"/>
<path d="M1.125 1.125L7.875 7.875"   stroke-linecap="round" stroke-linejoin="round"/>
</g>
<g id="icon-open-toggle" viewBox="0 0 25 11">
<rect width="25" height="3" rx="1.5" />
<rect y="8" width="25" height="3" rx="1.5"/>
</g>
</svg>
